<svg id="Capa_1" data-name="Capa 1" xmlns="http://www.w3.org/2000/svg" viewBox="0 0 1000.29 1000.29"><defs><style>.cls-1{fill:#ffb20f;}.cls-2{fill:#754c24;}.cls-3{fill:#42210b;}</style></defs><title>logo-BoviControl</title><circle class="cls-1" cx="500.14" cy="500.14" r="500.14"/><path class="cls-2" d="M7312.31,7341.74c-22.61-19.07-55.53-17.23-73.53,4.12s-14.27,54.11,8.33,73.18,55.53,17.22,73.54-4.13S7334.92,7360.8,7312.31,7341.74ZM7276,7413.19c-18.34-3-31.59-21.4-28-39.13,3.49-17.31,21.68-27.26,38.7-22.47,15.09,4.25,26,19.16,24.82,34.44C7310.23,7403.28,7294,7416.15,7276,7413.19Z" transform="translate(-6699.64 -6704.09)"/><path class="cls-3" d="M7180.7,7380.08c8.31,16.46,41.52,17.16,61.36,13.13,24.07-4.9,39.77-19.07,46.52-26l-6.6-196.27c90.29,0,159.15-58.27,166.26-123.36,6.11-55.94-35.29-99.35-43.1-107.27,20.12,51.91,9.67,108.54-26.17,143.3-33.32,32.31-76.1,33.6-87.24,33.59L7101.8,7096.9c-12.79-1.93-58.27-10.41-90.84-50.47-33.3-41-40.23-99.14-18.95-151.41-8,9.07-52.63,61-42.56,126.2,11.3,73.24,87.13,134.76,183.39,135-12.12,15.46-15.65,28.82-16.81,37.43-6.91,51.06,45.28,111,52.64,119.47,3.66,4.2,9,10,12.23,19.53C7188.28,7354.72,7174.14,7367.11,7180.7,7380.08Z" transform="translate(-6699.64 -6704.09)"/><path class="cls-3" d="M7142.65,7152a98.62,98.62,0,0,1-16.61,1.94,100.89,100.89,0,0,1-38.76-6.61,175.87,175.87,0,0,0-65.78,56c2.66,1.4,44,22.25,83.14-.73C7132.55,7186.15,7140.92,7158.31,7142.65,7152Z" transform="translate(-6699.64 -6704.09)"/></svg>