<svg id="Capa_1" data-name="Capa 1" xmlns="http://www.w3.org/2000/svg" viewBox="0 0 197.02 200.33"><defs><style>.cls-1,.cls-2{fill:none;stroke:#000;stroke-miterlimit:10;}.cls-1{stroke-width:6px;}.cls-2{stroke-width:5px;}</style></defs><title>vaquita</title><path class="cls-1" d="M7154,7184.25c-.82-.38-18.8-8.94-20.47-26.57-1.69-17.88,14.23-36.33,33.43-35.36,18.4.93,33.57,19.39,29.89,39.86" transform="translate(-7110.61 -7098.84)"/><path class="cls-2" d="M7120.39,7121l12.54,10.6" transform="translate(-7110.61 -7098.84)"/><path class="cls-2" d="M7169.1,7098.84q0,8.22,0,16.42" transform="translate(-7110.61 -7098.84)"/><path class="cls-2" d="M7140.29,7104.28q4.38,6.95,8.74,13.91" transform="translate(-7110.61 -7098.84)"/><path class="cls-2" d="M7110.75,7149l16.39.94" transform="translate(-7110.61 -7098.84)"/><path class="cls-2" d="M7204.61,7157.05l16.39.94" transform="translate(-7110.61 -7098.84)"/><path class="cls-2" d="M7115.1,7178.61l13.48-9.39" transform="translate(-7110.61 -7098.84)"/><path class="cls-2" d="M7133.66,7199.69l9.15-13.63" transform="translate(-7110.61 -7098.84)"/><path class="cls-2" d="M7188,7121.58l9.15-13.63" transform="translate(-7110.61 -7098.84)"/><path class="cls-2" d="M7114.29,7255.07a29.11,29.11,0,0,1,14.14-9.16c11.89-3.23,27.41,1.61,28.77,9.48.15.91.8,5.76-7.24,12.54" transform="translate(-7110.61 -7098.84)"/><path class="cls-2" d="M7143.54,7247.2a93.19,93.19,0,0,1,5.67-29.41c2.56-6.93,7.15-18.87,18.43-30a70.91,70.91,0,0,1,18-12.86l78.86.86a49.88,49.88,0,0,1,24,23.14c10.18,20.95.84,41.09-.43,43.71q.21,26.58.43,53.15l-16.71-.43a117.78,117.78,0,0,0,4.28-26.57c.58-13-1.33-19.74-2.14-22.29-2.29-7.19-6.28-14.16-7.72-13.71-1.08.34.78,4.5-.64,8.78-3.21,9.68-20.87,12.92-31.5,12.86a53.52,53.52,0,0,1-24.43-6.22c5.85-7.56,7-9.32,6.86-9.42-.34-.28-10.66,9.11-17.36,21.85a71.08,71.08,0,0,0-7.71,35.79l-24.43.21c1.14-7.5,4.9-32.61,4.12-33.71a1.7,1.7,0,0,0-.69-.57,2.07,2.07,0,0,0-1.52.15c-3.14,1.41-10.27,17.42-10.27,17.42a47.39,47.39,0,0,1-12,16.07l-12.43-1.07c1.93-8.83.91-15.18-.32-19.29-2.05-6.86-5.52-10.19-6.1-17.51a27.81,27.81,0,0,1,1.76-11.9Z" transform="translate(-7110.61 -7098.84)"/><path class="cls-2" d="M7117.66,7267.29" transform="translate(-7110.61 -7098.84)"/><path class="cls-2" d="M7194.21,7236.86a53.1,53.1,0,0,0-10.71,18.64c-1.85,5.8-1.86,9.6-3.43,21.86-1,8.15-2.09,14.72-2.78,18.85" transform="translate(-7110.61 -7098.84)"/><path class="cls-2" d="M7170.21,7263l12.22-4.71" transform="translate(-7110.61 -7098.84)"/><path class="cls-2" d="M7246.29,7252.93c3.67,6.73,10.82,10.4,17.57,9.21,7-1.23,10.6-7.2,11.14-8.14" transform="translate(-7110.61 -7098.84)"/><path class="cls-2" d="M7259.57,7262.79q.11,4.6.22,9.21" transform="translate(-7110.61 -7098.84)"/><path class="cls-2" d="M7268.79,7261.5l.21,9.21" transform="translate(-7110.61 -7098.84)"/><path class="cls-2" d="M7232.36,7255.29c2.26,2.71,5.35,7.36,5.14,13.07-.13,3.43-1.38,5.58-4.93,12.64-1.66,3.3-4.12,8.29-7.07,14.57h15.86a47.84,47.84,0,0,1,5.57-16.5c2.2-3.87,5-7.39,5.57-13.07a20.72,20.72,0,0,0-.43-6.64" transform="translate(-7110.61 -7098.84)"/><path class="cls-2" d="M7291.93,7207.29a38.19,38.19,0,0,1,7.07,15.85c1.29,7-.29,10.7.43,18.22a48.62,48.62,0,0,0,6,18.85" transform="translate(-7110.61 -7098.84)"/></svg>